<?xml version="1.0" encoding="iso-8859-1"?>
<!-- Generator: Adobe Illustrator 19.0.0, SVG Export Plug-In . SVG Version: 6.00 Build 0)  -->
<svg version="1.1" id="Layer_1" xmlns="http://www.w3.org/2000/svg" xmlns:xlink="http://www.w3.org/1999/xlink" x="0px" y="0px"
	 viewBox="0 0 512 512" style="enable-background:new 0 0 512 512;" xml:space="preserve">
<path style="fill:#FFEA92;" d="M151.392,363.876c0-20.454-16.581-37.035-37.035-37.035c-8.76,0-16.804,3.048-23.144,8.132
	c-5.273-5.034-12.41-8.132-20.276-8.132c-16.222,0-29.373,13.151-29.373,29.373c0,3.908,0.77,7.635,2.156,11.046
	c-13.183,4.845-22.59,17.511-22.59,32.374c0,19.044,15.438,34.482,34.482,34.482c7.496,0,36.019,7.663,47.252,7.663
	c18.338,0,33.205-14.867,33.205-33.205C136.067,403.977,151.392,377.347,151.392,363.876z"/>
<g>
	<path style="fill:#62AF62;" d="M128.661,285.477c-4.328,0-7.837,3.509-7.837,7.837v20.375h-20.376
		c-4.328,0-7.837,3.509-7.837,7.837c0,4.328,3.509,7.837,7.837,7.837h28.212c4.328,0,7.837-3.509,7.837-7.837v-28.212
		C136.498,288.984,132.989,285.477,128.661,285.477z"/>
	<path style="fill:#62AF62;" d="M116.214,301.24v-28.212c0-4.328-3.509-7.837-7.837-7.837s-7.837,3.509-7.837,7.837v20.376H80.165
		c-4.328,0-7.837,3.509-7.837,7.837s3.509,7.837,7.837,7.837h28.212C112.705,309.077,116.214,305.569,116.214,301.24z"/>
</g>
<path style="fill:#519351;" d="M148.172,348.873c-2.006,0-4.011-0.765-5.541-2.296l-63.103-63.102c-3.061-3.06-3.061-8.023,0-11.082
	c3.061-3.06,8.023-3.06,11.082,0l63.103,63.103c3.061,3.06,3.061,8.023,0,11.082C152.183,348.108,150.178,348.873,148.172,348.873z"
	/>
<g>
	<path style="fill:#DBC877;" d="M106.055,377.115c-4.328,0-7.837-3.509-7.837-7.837c0-2.787-2.267-5.054-5.054-5.054
		s-5.054,2.267-5.054,5.054c0,4.328-3.509,7.837-7.837,7.837c-4.328,0-7.837-3.509-7.837-7.837c0-11.429,9.299-20.728,20.728-20.728
		s20.728,9.299,20.728,20.728C113.892,373.606,110.383,377.115,106.055,377.115z"/>
	<path style="fill:#DBC877;" d="M79.236,411.477c-4.328,0-7.837-3.509-7.837-7.837c0-2.787-2.267-5.054-5.054-5.054
		c-2.787,0-5.054,2.267-5.054,5.054c0,4.328-3.509,7.836-7.837,7.836l0,0c-4.328,0-7.837-3.509-7.837-7.837
		c0.001-11.429,9.3-20.727,20.728-20.727c11.429,0,20.728,9.299,20.728,20.728C87.072,407.969,83.565,411.477,79.236,411.477z"/>
</g>
<path style="fill:#9D7049;" d="M463.412,363.536c0,36.356-29.472,65.829-65.829,65.829H176.065
	c-36.356,0-65.829-29.472-65.829-65.829v-4.18c0-36.356,29.472-65.829,65.829-65.829h221.518c36.356,0,65.829,29.472,65.829,65.829
	V363.536z"/>
<path style="fill:#C16A73;" d="M176.065,403.242c-21.894,0-39.706-17.812-39.706-39.706v-4.18c0-21.894,17.812-39.706,39.706-39.706
	h221.518c21.894,0,39.706,17.812,39.706,39.706v4.18c0,21.894-17.812,39.706-39.706,39.706H176.065z"/>
<path style="opacity:0.1;enable-background:new    ;" d="M397.584,371.257H176.065c-17.004,0-31.541-10.747-37.188-25.804
	c-1.624,4.329-2.518,9.012-2.518,13.902v4.18c0,21.894,17.812,39.706,39.706,39.706h221.518c21.894,0,39.706-17.812,39.706-39.706
	v-4.18c0-4.89-0.893-9.573-2.518-13.902C429.124,360.511,414.587,371.257,397.584,371.257z"/>
<path style="fill:#FCE9C3;" d="M197.173,216.09c-4.328,0-7.837-3.509-7.837-7.837v-17.892c0-19.516,15.876-35.392,35.392-35.392
	h42.938c4.328,0,7.837,3.509,7.837,7.837c0,4.328-3.509,7.837-7.837,7.837h-42.938c-10.873,0-19.718,8.845-19.718,19.718v17.892
	C205.01,212.581,201.501,216.09,197.173,216.09z"/>
<g>
	<path style="fill:#F2D8A0;" d="M322.873,89.198h-22.69c-4.328,0-7.837,3.509-7.837,7.837s3.509,7.837,7.837,7.837h22.69
		c13.813,0,25.049,11.237,25.049,25.049c0,13.813-11.237,25.05-25.049,25.05h-26.122c-4.328,0-7.837,3.509-7.837,7.837
		c0,4.328,3.509,7.837,7.837,7.837h26.122c22.455,0,40.723-18.268,40.723-40.724C363.596,107.466,345.328,89.198,322.873,89.198z"/>
	<path style="fill:#F2D8A0;" d="M263.341,114.219h-51.288c-14.659,0-26.584-11.926-26.584-26.585s11.926-26.585,26.584-26.585
		h18.413c4.328,0,7.837-3.509,7.837-7.837s-3.509-7.837-7.837-7.837h-18.413c-23.301,0-42.258,18.958-42.258,42.259
		s18.958,42.259,42.258,42.259h51.288c4.328,0,7.837-3.509,7.837-7.837S267.669,114.219,263.341,114.219z"/>
</g>
<circle style="fill:#B0CE6F;" cx="93.435" cy="415.357" r="20.992"/>
<g>
	<path style="fill:#AB4D4D;" d="M171.886,355.699c-6.852,0-10.37-8.55-5.541-13.378l28.212-28.212c3.061-3.06,8.023-3.06,11.082,0
		c3.061,3.06,3.061,8.023,0,11.082l-28.212,28.212C175.897,354.934,173.891,355.699,171.886,355.699z"/>
	<path style="fill:#AB4D4D;" d="M218.906,355.699c-6.852,0-10.37-8.55-5.541-13.378l28.212-28.212c3.061-3.06,8.023-3.06,11.082,0
		c3.061,3.06,3.061,8.023,0,11.082l-28.212,28.212C222.917,354.934,220.911,355.699,218.906,355.699z"/>
	<path style="fill:#AB4D4D;" d="M265.927,355.699c-6.852,0-10.37-8.55-5.541-13.378l28.212-28.212c3.06-3.06,8.023-3.06,11.082,0
		c3.06,3.06,3.06,8.023,0,11.082l-28.212,28.212C269.938,354.934,267.932,355.699,265.927,355.699z"/>
	<path style="fill:#AB4D4D;" d="M312.947,355.699c-6.852,0-10.37-8.55-5.541-13.378l28.212-28.212c3.06-3.06,8.023-3.06,11.082,0
		c3.061,3.06,3.061,8.023,0,11.082l-28.212,28.212C316.958,354.934,314.952,355.699,312.947,355.699z"/>
	<path style="fill:#AB4D4D;" d="M359.967,355.699c-6.852,0-10.37-8.55-5.541-13.378l28.212-28.212c3.061-3.06,8.023-3.06,11.082,0
		c3.06,3.06,3.06,8.023,0,11.082l-28.212,28.212C363.979,354.934,361.973,355.699,359.967,355.699z"/>
</g>
<circle style="fill:#B0CE6F;" cx="161.792" cy="411.961" r="24.391"/>
<path style="fill:#FFCC60;" d="M336.564,274.789c0.013-0.479,0.037-0.954,0.037-1.436c0-30.146-24.438-54.584-54.584-54.584
	s-54.584,24.439-54.584,54.584c0,0.482,0.024,0.957,0.037,1.436H336.564z"/>
<path style="opacity:0.1;enable-background:new    ;" d="M298.39,221.271c-5.169-1.624-10.668-2.503-16.374-2.503
	c-30.146,0-54.584,24.439-54.584,54.584c0,0.482,0.024,0.957,0.037,1.436h32.748c-0.013-0.479-0.037-0.954-0.037-1.436
	C260.18,248.912,276.245,228.227,298.39,221.271z"/>
<path style="fill:#FFFFFF;" d="M395.494,277.727c0,8.727-7.075,15.801-15.801,15.801H184.339c-8.727,0-15.801-7.075-15.801-15.801
	l0,0c0-8.727,7.074-15.801,15.801-15.801h195.354C388.419,261.926,395.494,269.001,395.494,277.727L395.494,277.727z"/>
<path style="opacity:0.1;enable-background:new    ;" d="M201.452,277.727c0-8.727,7.074-15.801,15.801-15.801h-32.914
	c-8.727,0-15.801,7.074-15.801,15.801c0,8.727,7.074,15.801,15.801,15.801h32.914C208.526,293.528,201.452,286.454,201.452,277.727z
	"/>
<path style="fill:#F48911;" d="M478.271,397.956c0,5.77-4.678,10.449-10.449,10.449h-50.155c-5.771,0-10.449-4.679-10.449-10.449
	v-6.269c0-5.771,4.678-10.449,10.449-10.449h50.155c5.771,0,10.449,4.678,10.449,10.449V397.956z"/>
<path style="fill:#FFC38D;" d="M432.295,420.943c0,5.77-4.678,10.449-10.449,10.449h-50.155c-5.771,0-10.449-4.679-10.449-10.449
	v-6.269c0-5.771,4.678-10.449,10.449-10.449h50.155c5.771,0,10.449,4.678,10.449,10.449V420.943z"/>
<path style="fill:#F48911;" d="M484.54,420.943c0,5.77-4.678,10.449-10.449,10.449h-50.155c-5.771,0-10.449-4.679-10.449-10.449
	v-6.269c0-5.771,4.678-10.449,10.449-10.449h50.155c5.771,0,10.449,4.678,10.449,10.449V420.943z"/>
<circle style="fill:#53B559;" cx="125.367" cy="411.961" r="24.391"/>
<path id="SVGCleanerId_0" style="fill:#EFDFBB;" d="M504.163,448.341c0,5.771-4.678,10.449-10.449,10.449H18.286
	c-5.771,0-10.449-4.678-10.449-10.449v-10.449c0-5.77,4.678-10.449,10.449-10.449h475.429c5.771,0,10.449,4.679,10.449,10.449
	V448.341z"/>
<g>
	<path id="SVGCleanerId_0_1_" style="fill:#EFDFBB;" d="M504.163,448.341c0,5.771-4.678,10.449-10.449,10.449H18.286
		c-5.771,0-10.449-4.678-10.449-10.449v-10.449c0-5.77,4.678-10.449,10.449-10.449h475.429c5.771,0,10.449,4.679,10.449,10.449
		V448.341z"/>
</g>
<path style="opacity:0.1;enable-background:new    ;" d="M50.155,448.341v-10.449c0-5.77,4.678-10.449,10.449-10.449H18.286
	c-5.771,0-10.449,4.679-10.449,10.449v10.449c0,5.771,4.678,10.449,10.449,10.449h42.318
	C54.833,458.79,50.155,454.112,50.155,448.341z"/>
<path d="M493.714,419.606h-1.337v-4.932c0-5.587-2.526-10.59-6.487-13.947c0.14-0.904,0.217-1.829,0.217-2.771v-6.269
	c0-9.154-6.769-16.737-15.56-18.06c0.456-3.3,0.701-6.666,0.701-10.091v-4.18c0-39.176-30.743-71.297-69.369-73.531
	c0.927-2.53,1.45-5.253,1.45-8.099c0-13.034-10.604-23.638-23.638-23.638h-2.485c-4.328,0-7.837,3.509-7.837,7.837
	c0,4.328,3.509,7.837,7.837,7.837h2.485c4.392,0,7.964,3.573,7.964,7.964c0,4.392-3.573,7.964-7.964,7.964H184.339
	c-4.392,0-7.964-3.573-7.964-7.964c0-4.392,3.573-7.964,7.964-7.964h158.388c4.328,0,7.837-3.509,7.837-7.837
	s-3.509-7.837-7.837-7.837h-1.352c-8.137-25.018-31.661-43.157-59.359-43.157c-27.697,0-51.222,18.138-59.359,43.157h-38.318
	c-13.034,0-23.638,10.604-23.638,23.638c0,3.272,0.674,6.387,1.882,9.222c-20.059,3.727-37.282,15.609-48.103,32.057
	c-0.041,0-0.083-0.003-0.124-0.003c-8.028,0-15.931,2.184-22.803,6.236c-6.068-4.053-13.199-6.236-20.619-6.236
	c-20.518,0-37.21,16.692-37.21,37.21c0,2.307,0.21,4.587,0.628,6.826c-12.834,7.486-21.061,21.411-21.061,36.594
	c0,7.221,1.826,14.019,5.031,19.971h-0.037C8.203,419.605,0,427.808,0,437.891v10.449c0,10.082,8.203,18.286,18.286,18.286h52.767
	c4.328,0,7.837-3.509,7.837-7.837c0-4.328-3.509-7.837-7.837-7.837H18.286c-1.44,0-2.612-1.172-2.612-2.612v-10.449
	c0-1.44,1.172-2.612,2.612-2.612h475.429c1.44,0,2.612,1.172,2.612,2.612v10.449c0,1.44-1.172,2.612-2.612,2.612H106.58
	c-4.328,0-7.837,3.509-7.837,7.837c0,4.328,3.509,7.837,7.837,7.837h387.135c10.082,0,18.286-8.204,18.286-18.286v-10.449
	C512,427.808,503.796,419.606,493.714,419.606z M282.016,226.606c18.91,0,35.217,11.293,42.57,27.484h-85.14
	C246.799,237.899,263.107,226.606,282.016,226.606z M94.068,419.606H80.99c-0.457-1.332-0.712-2.757-0.712-4.243
	c0-7.252,5.899-13.151,13.15-13.151c0.404,0,0.806,0.019,1.201,0.054c-0.968,3.06-1.492,6.316-1.492,9.692
	C93.138,414.595,93.467,417.153,94.068,419.606z M103.45,388.358c-3.125-1.165-6.495-1.82-10.022-1.82
	c-15.893,0-28.824,12.931-28.824,28.825c0,1.442,0.116,2.857,0.323,4.243H38c-5.535-4.886-9.035-12.026-9.035-19.971
	c0-11.127,7.014-21.182,17.456-25.019c1.994-0.732,3.605-2.243,4.464-4.186c0.859-1.942,0.892-4.151,0.093-6.12
	c-1.048-2.58-1.58-5.304-1.58-8.097c0-11.875,9.661-21.536,21.536-21.536c5.558,0,10.837,2.118,14.865,5.964
	c2.84,2.713,7.25,2.903,10.314,0.446c3.059-2.453,6.495-4.209,10.156-5.261c-2.499,7.394-3.869,15.303-3.869,23.53v4.18
	c0,7.916,1.272,15.536,3.597,22.684C105.11,386.888,104.263,387.604,103.45,388.358z M140.029,419.606h-29.328
	c-1.202-2.287-1.89-4.886-1.89-7.647c0-9.127,7.426-16.553,16.553-16.553c9.128,0,16.554,7.425,16.554,16.553
	C141.919,414.719,141.232,417.318,140.029,419.606z M128.522,359.356v4.18c0,5.917,1.096,11.58,3.082,16.807
	c-2.021-0.398-4.105-0.611-6.24-0.611c-1.649,0-3.267,0.125-4.85,0.366c-1.574-5.252-2.441-10.804-2.441-16.562v-4.18
	c0-31.977,26.015-57.992,57.992-57.992h221.518c31.977,0,57.992,26.015,57.992,57.992v4.18c0,3.363-0.3,6.657-0.855,9.864h-10.642
	c0.678-3.184,1.048-6.48,1.048-9.864v-4.18c0-26.215-21.327-47.543-47.543-47.543H176.065
	C149.85,311.813,128.522,333.142,128.522,359.356z M176.458,419.606h-19.797c0.601-2.453,0.93-5.011,0.93-7.647
	c0-5.265-1.277-10.234-3.525-14.626c2.308-1.226,4.935-1.927,7.727-1.927c9.128,0,16.554,7.425,16.554,16.553
	C178.348,414.719,177.661,417.318,176.458,419.606z M161.794,379.732c-4.136,0-8.088,0.79-11.723,2.217
	c-3.699-5.203-5.875-11.558-5.875-18.413v-4.18c0-17.573,14.296-31.869,31.869-31.869h221.518c17.573,0,31.869,14.296,31.869,31.869
	v4.18c0,3.444-0.563,6.755-1.579,9.864h-10.208c-10.082,0-18.286,8.202-18.286,18.286v3.65c-0.597,0.033-1.192,0.07-1.797,0.07
	h-208.15C183.792,386.024,173.516,379.732,161.794,379.732z M353.405,414.674v4.932H193.092c0.601-2.453,0.93-5.011,0.93-7.647
	c0-0.295-0.015-0.586-0.022-0.88h159.765C353.532,412.243,353.405,413.443,353.405,414.674z M405.65,414.674v4.932h-36.571v-4.932
	c0-1.44,1.172-2.612,2.612-2.612h34.168C405.736,412.918,405.65,413.785,405.65,414.674z M415.054,391.686
	c0-1.44,1.172-2.612,2.612-2.612h50.155c1.44,0,2.612,1.172,2.612,2.612v4.702h-55.38V391.686z M476.703,419.606h-55.38v-4.932
	c0-1.44,1.172-2.612,2.612-2.612h50.155c1.44,0,2.612,1.172,2.612,2.612V419.606z"/>
<g>
</g>
<g>
</g>
<g>
</g>
<g>
</g>
<g>
</g>
<g>
</g>
<g>
</g>
<g>
</g>
<g>
</g>
<g>
</g>
<g>
</g>
<g>
</g>
<g>
</g>
<g>
</g>
<g>
</g>
</svg>
